<svg xmlns="http://www.w3.org/2000/svg" width="166" height="56.691" viewBox="0 0 166 56.691"><g transform="translate(-1355 -36)"><path d="M35.173,37.015,49.452,52.681ZM4,22.547A18.548,18.548,0,1,1,22.547,41.095,18.547,18.547,0,0,1,4,22.547Z" transform="translate(1396.115 36.01)" fill="none" stroke="#fff" stroke-linecap="round" stroke-linejoin="round" stroke-width="8"/><path d="M29.779-34.884a24.682,24.682,0,0,1-12.117-2.935,21.5,21.5,0,0,1-8.344-8.092A22.721,22.721,0,0,1,6.3-57.609a22.721,22.721,0,0,1,3.019-11.7,21.208,21.208,0,0,1,8.344-8.05A24.97,24.97,0,0,1,29.779-80.25a23.259,23.259,0,0,1,10.775,2.432,17.321,17.321,0,0,1,7.337,7.044l-6.121,3.941a13.676,13.676,0,0,0-5.2-4.78A14.829,14.829,0,0,0,29.7-73.206a15.9,15.9,0,0,0-7.84,1.929A13.744,13.744,0,0,0,16.4-65.785a16.615,16.615,0,0,0-1.971,8.176,16.791,16.791,0,0,0,1.971,8.26,13.744,13.744,0,0,0,5.451,5.493,15.9,15.9,0,0,0,7.84,1.929,14.829,14.829,0,0,0,6.876-1.593,13.676,13.676,0,0,0,5.2-4.78l6.121,3.857a17.583,17.583,0,0,1-7.337,7.086A22.934,22.934,0,0,1,29.779-34.884Z" transform="translate(1348.7 116.25)" fill="#fff"/><path d="M32.953-80.049v21.3H29.3v-3.215a7.754,7.754,0,0,1-3.074,2.552,9.591,9.591,0,0,1-4.159.9,9.293,9.293,0,0,1-6.711-2.351Q12.9-63.211,12.9-67.792V-80.049h3.858v11.815a6.614,6.614,0,0,0,1.487,4.682,5.553,5.553,0,0,0,4.26,1.587,6.358,6.358,0,0,0,4.822-1.849,7.256,7.256,0,0,0,1.768-5.224V-80.049Zm8.64,3.577a6.582,6.582,0,0,1,2.974-2.813,10.793,10.793,0,0,1,4.782-.964v3.737a7.532,7.532,0,0,0-.884-.04,6.491,6.491,0,0,0-4.923,1.869,7.4,7.4,0,0,0-1.788,5.325v10.609H37.9v-21.3h3.7ZM57.948-58.51a17.848,17.848,0,0,1-5.023-.7A11.03,11.03,0,0,1,49.147-61l1.607-3.054a11.538,11.538,0,0,0,3.416,1.607,14.055,14.055,0,0,0,4.059.6q5.063,0,5.063-2.893a1.874,1.874,0,0,0-.683-1.527,4.325,4.325,0,0,0-1.708-.824q-1.025-.261-2.913-.583a28.55,28.55,0,0,1-4.2-.924A6.472,6.472,0,0,1,51-70.364a4.921,4.921,0,0,1-1.165-3.5A5.461,5.461,0,0,1,52.242-78.5a10.8,10.8,0,0,1,6.47-1.748,17.824,17.824,0,0,1,4.26.522,11.456,11.456,0,0,1,3.5,1.407L64.82-75.267a11.078,11.078,0,0,0-6.148-1.688,7.107,7.107,0,0,0-3.737.8,2.425,2.425,0,0,0-1.286,2.13,2.031,2.031,0,0,0,.723,1.648,4.574,4.574,0,0,0,1.788.884q1.065.281,2.994.643a32.491,32.491,0,0,1,4.159.944,6.211,6.211,0,0,1,2.713,1.708,4.758,4.758,0,0,1,1.125,3.376,5.323,5.323,0,0,1-2.471,4.6A11.672,11.672,0,0,1,57.948-58.51Zm21.218-3.376a7.9,7.9,0,0,0,6.148-2.572l2.09,2.492a9,9,0,0,1-3.556,2.572,12.518,12.518,0,0,1-4.8.884A12.578,12.578,0,0,1,73.058-59.9a9.888,9.888,0,0,1-4.039-3.878A11.118,11.118,0,0,1,67.593-69.4a11.291,11.291,0,0,1,1.386-5.586A9.932,9.932,0,0,1,72.8-78.864a10.875,10.875,0,0,1,5.485-1.386,10.728,10.728,0,0,1,5.264,1.306,9.857,9.857,0,0,1,3.777,3.677A10.791,10.791,0,0,1,88.77-69.8l-16.918,3.3a6.569,6.569,0,0,0,2.713,3.416A8.441,8.441,0,0,0,79.166-61.885Zm-.884-15.11a7.015,7.015,0,0,0-3.6.924,6.4,6.4,0,0,0-2.471,2.592A8.16,8.16,0,0,0,71.33-69.6v.4l13.623-2.572a6.515,6.515,0,0,0-2.331-3.777A6.732,6.732,0,0,0,78.282-76.995Z" transform="translate(1432.229 139.309)" fill="#8bfff7"/><path d="M3.1-.937a5.612,5.612,0,0,1-1.579-.221A3.468,3.468,0,0,1,.336-1.72l.505-.96a3.628,3.628,0,0,0,1.074.505,4.419,4.419,0,0,0,1.276.19q1.592,0,1.592-.91a.589.589,0,0,0-.215-.48,1.36,1.36,0,0,0-.537-.259q-.322-.082-.916-.183A8.977,8.977,0,0,1,1.8-4.108a2.035,2.035,0,0,1-.878-.556,1.547,1.547,0,0,1-.366-1.1,1.717,1.717,0,0,1,.758-1.459,3.4,3.4,0,0,1,2.034-.55,5.6,5.6,0,0,1,1.339.164,3.6,3.6,0,0,1,1.1.442l-.518.96a3.483,3.483,0,0,0-1.933-.531,2.235,2.235,0,0,0-1.175.253.763.763,0,0,0-.4.67.638.638,0,0,0,.227.518,1.438,1.438,0,0,0,.562.278q.335.088.941.2a10.216,10.216,0,0,1,1.308.3,1.953,1.953,0,0,1,.853.537A1.5,1.5,0,0,1,6-2.92,1.674,1.674,0,0,1,5.22-1.474,3.67,3.67,0,0,1,3.1-.937ZM9.775-2a2.484,2.484,0,0,0,1.933-.809l.657.783a2.828,2.828,0,0,1-1.118.809,3.936,3.936,0,0,1-1.51.278,3.955,3.955,0,0,1-1.883-.436,3.109,3.109,0,0,1-1.27-1.219,3.5,3.5,0,0,1-.449-1.769,3.55,3.55,0,0,1,.436-1.756,3.123,3.123,0,0,1,1.2-1.219A3.419,3.419,0,0,1,9.5-7.772a3.373,3.373,0,0,1,1.655.411A3.1,3.1,0,0,1,12.34-6.206a3.393,3.393,0,0,1,.455,1.718L7.475-3.451a2.065,2.065,0,0,0,.853,1.074A2.654,2.654,0,0,0,9.775-2ZM9.5-6.749a2.206,2.206,0,0,0-1.131.291,2.013,2.013,0,0,0-.777.815,2.566,2.566,0,0,0-.278,1.219V-4.3l4.283-.809a2.048,2.048,0,0,0-.733-1.188A2.117,2.117,0,0,0,9.5-6.749Zm10.551-.96v6.7H18.885V-2.074a2.627,2.627,0,0,1-1.023.847A3.171,3.171,0,0,1,16.5-.937a3.52,3.52,0,0,1-1.744-.43,3.078,3.078,0,0,1-1.207-1.207,3.592,3.592,0,0,1-.436-1.788,3.557,3.557,0,0,1,.436-1.782,3.09,3.09,0,0,1,1.207-1.2,3.52,3.52,0,0,1,1.744-.43,3.208,3.208,0,0,1,1.327.272,2.576,2.576,0,0,1,1.011.8V-7.709ZM16.6-2a2.271,2.271,0,0,0,1.15-.3,2.083,2.083,0,0,0,.809-.834,2.547,2.547,0,0,0,.291-1.232,2.547,2.547,0,0,0-.291-1.232,2.041,2.041,0,0,0-.809-.828,2.31,2.31,0,0,0-1.15-.291,2.3,2.3,0,0,0-1.156.291,2.1,2.1,0,0,0-.809.828,2.5,2.5,0,0,0-.3,1.232,2.5,2.5,0,0,0,.3,1.232,2.14,2.14,0,0,0,.809.834A2.261,2.261,0,0,0,16.6-2Zm6.153-4.587a2.07,2.07,0,0,1,.935-.884,3.394,3.394,0,0,1,1.5-.3V-6.6a2.368,2.368,0,0,0-.278-.013,2.041,2.041,0,0,0-1.548.588A2.326,2.326,0,0,0,22.8-4.348v3.336H21.589v-6.7h1.162ZM28.778-.937a3.719,3.719,0,0,1-1.826-.442A3.24,3.24,0,0,1,25.7-2.6a3.424,3.424,0,0,1-.455-1.763A3.424,3.424,0,0,1,25.7-6.124a3.2,3.2,0,0,1,1.257-1.213,3.762,3.762,0,0,1,1.826-.436,3.5,3.5,0,0,1,1.624.366,2.61,2.61,0,0,1,1.106,1.061l-.922.594a2.061,2.061,0,0,0-.783-.72,2.234,2.234,0,0,0-1.036-.24,2.4,2.4,0,0,0-1.181.291,2.071,2.071,0,0,0-.821.828,2.5,2.5,0,0,0-.3,1.232,2.53,2.53,0,0,0,.3,1.245,2.071,2.071,0,0,0,.821.828A2.4,2.4,0,0,0,28.766-2a2.234,2.234,0,0,0,1.036-.24,2.061,2.061,0,0,0,.783-.72l.922.581A2.65,2.65,0,0,1,30.4-1.309,3.456,3.456,0,0,1,28.778-.937ZM35.8-7.772a2.767,2.767,0,0,1,2.028.739,2.907,2.907,0,0,1,.752,2.167v3.854H37.371V-4.727A2.056,2.056,0,0,0,36.9-6.193a1.758,1.758,0,0,0-1.339-.493,2.087,2.087,0,0,0-1.554.575,2.246,2.246,0,0,0-.569,1.649v3.449H32.228v-9.376h1.213v3.626a2.5,2.5,0,0,1,.992-.745A3.416,3.416,0,0,1,35.8-7.772Z" transform="translate(1481.323 56.906)" fill="#fff"/></g></svg>